<svg xmlns="http://www.w3.org/2000/svg" viewBox="0 0 900 700"><defs><linearGradient id="sky" x2="0" y2="1"><stop stop-color="#e9faff"/><stop offset="1" stop-color="#a4dcef"/></linearGradient><linearGradient id="ice" x2="1" y2="1"><stop stop-color="#fff"/><stop offset="1" stop-color="#a9dff2"/></linearGradient></defs><rect width="900" height="700" rx="60" fill="url(#sky)"/><circle cx="125" cy="115" r="55" fill="#fff" opacity=".7"/><path d="M0 570Q200 480 390 565T900 530V700H0Z" fill="#f8fdff"/><g fill="url(#ice)" stroke="#4fa8cc" stroke-width="7" stroke-linejoin="round"><path d="M245 565V320l75-95 75 95v245Z"/><path d="M370 565V210l80-130 80 130v355Z"/><path d="M505 565V330l76-105 76 105v235Z"/><path d="M315 365h270v200H315Z"/></g><path d="M421 565V438q29-49 58 0v127" fill="#6eb5d3"/><g fill="#fff" opacity=".85"><circle cx="720" cy="120" r="12"/><circle cx="785" cy="210" r="8"/><circle cx="180" cy="250" r="10"/></g></svg>
