<svg xmlns="http://www.w3.org/2000/svg" viewBox="0 0 1600 2000"><defs><linearGradient id="g"><stop stop-color="#eafeff"/><stop offset="1" stop-color="#61bee5"/></linearGradient><filter id="s"><feDropShadow dx="0" dy="10" stdDeviation="14" flood-color="#174e73" flood-opacity=".3"/></filter></defs><path d="M0 0h1600v200H0zM0 1800h1600v200H0zM0 0h170v2000H0zM1430 0h170v2000h-170z" fill="url(#g)"/><g fill="#fff" stroke="#238ab8" stroke-width="12" filter="url(#s)"><path d="M110 230l32 61 68 10-50 49 12 68-62-32-62 32 12-68-50-49 68-10z"/><path d="M1490 1510l32 61 68 10-50 49 12 68-62-32-62 32 12-68-50-49 68-10z"/></g><text x="800" y="1910" text-anchor="middle" font-family="Georgia,serif" font-size="76" fill="#07567f">Neve Encantada</text></svg>
